<svg xmlns="http://www.w3.org/2000/svg" width="50" height="50" viewBox="0 0 50 50"><defs><style>.a{fill:none;}.b{fill:#f44236;}</style></defs><path class="a" d="M0,0H50V50H0Z"/><path class="b" d="M22.4,2A20.4,20.4,0,1,0,42.8,22.4,20.406,20.406,0,0,0,22.4,2Zm0,6.12a6.12,6.12,0,1,1-6.12,6.12A6.111,6.111,0,0,1,22.4,8.12Zm0,28.966a14.688,14.688,0,0,1-12.239-6.568c.061-4.059,8.159-6.283,12.239-6.283,4.059,0,12.178,2.223,12.239,6.283A14.688,14.688,0,0,1,22.4,37.085Z" transform="translate(2.602 2.602)"/></svg>